<svg width="20" height="20" fill="none" xmlns="http://www.w3.org/2000/svg"><defs><clipPath id="a"><path fill="#fff" d="M0 0h20v20H0z"/></clipPath></defs><g clip-path="url(#a)"><path d="M16 1H4C3 1 2 2.206 2 3.492v12.937C2 17.714 3 19 4 19h12c1 0 2-1.286 2-2.571V3.492C18 2.206 17 1 16 1zM6.625 4.5c1.105 0 2 .945 2 2.365 0 1.421-.895 2.135-2 2.135s-2-.714-2-2.135c0-1.419.895-2.365 2-2.365zm10.547 7.584-1.984-2.55-4.113 5.287 2.427 3.12h-1.149l-4.04-5.193-4.04 5.194s-.178.013-.444-.107c-.218-.099-.373-.319-.373-.319l4.858-6.246 2.186 2.812 4.687-6.027 1.984 2.55.001 1.48z" fill="#15CC99"/></g></svg>